<?xml version="1.0" encoding="utf-8"?><svg viewBox="0 0 100 100" xmlns="http://www.w3.org/2000/svg" width="200px" height="200px" xmlns:xlink="http://www.w3.org/1999/xlink" style="width:100%;height:100%;background-size:initial;background-repeat-y:initial;background-repeat-x:initial;background-position-y:initial;background-position-x:initial;background-origin:initial;background-color:initial;background-clip:initial;background-attachment:initial;animation-play-state:paused" ><g class="ldl-scale" style="transform-origin:50% 50%;transform:rotate(0deg) scale(0.8, 0.8);animation-play-state:paused" ><g style="animation-play-state:paused" ><g style="animation-play-state:paused" ><path fill="#c33736" d="M8.74 56.896l23.564-24.772a4.017 4.017 0 0 1 5.361-.415l.343.267L53.732 44.2l-5.944.371 32.555-32.555a4.5 4.5 0 0 1 6.364 6.364L54.153 50.936a4.502 4.502 0 0 1-5.944.371L32.484 39.082l5.704-.148L10.26 58.655a1.168 1.168 0 0 1-1.52-1.759z" style="fill:rgb(34, 11, 9);animation-play-state:paused" ></path></g>
<g style="animation-play-state:paused" ><path fill="#c33736" d="M90.5 15.199l-2.667 19.918a3.363 3.363 0 0 1-6.667 0L78.5 15.199a6.052 6.052 0 0 1 5.197-6.803 6.052 6.052 0 0 1 6.803 6.803z" style="fill:rgb(34, 11, 9);animation-play-state:paused" ></path></g>
<g style="animation-play-state:paused" ><path fill="#c33736" d="M83.526 20.225l-19.918-2.667a3.363 3.363 0 0 1 0-6.667l19.918-2.667a6.053 6.053 0 1 1 0 12.001z" style="fill:rgb(34, 11, 9);animation-play-state:paused" ></path></g></g>
<path fill="#323232" d="M31.252 92.022H16.748a2.989 2.989 0 0 1-2.989-2.989V65.905a2.989 2.989 0 0 1 2.989-2.989h14.503a2.989 2.989 0 0 1 2.989 2.989v23.129a2.988 2.988 0 0 1-2.988 2.988z" style="fill:rgb(211, 76, 49);animation-play-state:paused" ></path>
<path fill="#323232" d="M57.252 92.022H42.748a2.989 2.989 0 0 1-2.989-2.989V73.026a2.989 2.989 0 0 1 2.989-2.989h14.503a2.989 2.989 0 0 1 2.989 2.989v16.007a2.989 2.989 0 0 1-2.988 2.989z" style="fill:rgb(211, 76, 49);animation-play-state:paused" ></path>
<path fill="#323232" d="M83.252 92.022H68.748a2.989 2.989 0 0 1-2.989-2.989V57.235a2.989 2.989 0 0 1 2.989-2.989h14.503a2.989 2.989 0 0 1 2.989 2.989v31.799a2.988 2.988 0 0 1-2.988 2.988z" style="fill:rgb(211, 76, 49);animation-play-state:paused" ></path>
<metadata xmlns:d="https://loading.io/stock/" style="animation-play-state:paused" ><d:name style="animation-play-state:paused" >trend</d:name>


<d:tags style="animation-play-state:paused" >trend,revenue,profit,earning,income,grow,up,arrow,bar,column chart</d:tags>


<d:license style="animation-play-state:paused" >by</d:license>


<d:slug style="animation-play-state:paused" >m4t2xn</d:slug></metadata></g><!-- generated by https://loading.io/ --></svg>